<?xml version="1.0" encoding="UTF-8"?>
<svg version="1.1" xmlns="http://www.w3.org/2000/svg" width="512" height="512">
<path d="M0 0 C1.04653397 -0.00384115 2.09306795 -0.00768229 3.17131507 -0.01163983 C4.90941056 -0.01034011 4.90941056 -0.01034011 6.68261909 -0.00901413 C7.90657139 -0.01198525 9.13052368 -0.01495637 10.39156544 -0.01801753 C13.79981188 -0.02521365 17.20800794 -0.02787807 20.61625838 -0.028615 C24.28777811 -0.0304625 27.95928685 -0.03800826 31.63080025 -0.04475021 C39.66375054 -0.05834621 47.69669586 -0.06436014 55.72965574 -0.06876087 C60.74259453 -0.07152099 65.75553138 -0.07575791 70.76846886 -0.08026505 C84.63974766 -0.09245906 98.51102491 -0.10275831 112.38230896 -0.10614014 C113.27051585 -0.1063597 114.15872273 -0.10657927 115.07384498 -0.10680549 C115.96421134 -0.10702377 116.8545777 -0.10724204 117.77192485 -0.10746694 C119.5762322 -0.10791041 121.38053954 -0.10835697 123.18484688 -0.10880661 C124.52735316 -0.10913875 124.52735316 -0.10913875 125.89698078 -0.10947761 C140.40505992 -0.11342713 154.91308889 -0.13088523 169.42114864 -0.15416613 C184.30575662 -0.17785909 199.1903394 -0.19034104 214.07496655 -0.19150805 C222.43643877 -0.19242594 230.7978456 -0.19820682 239.15929985 -0.21632767 C246.2781655 -0.23170092 253.39694557 -0.23686558 260.51582466 -0.22858956 C264.14972676 -0.22467324 267.78345636 -0.22566019 271.41733742 -0.23964691 C275.35268234 -0.25465582 279.28778227 -0.24654846 283.22314644 -0.23606491 C284.37741532 -0.24412132 285.53168421 -0.25217772 286.72093093 -0.26047826 C288.29855514 -0.25059349 288.29855514 -0.25059349 289.90805054 -0.24050903 C290.8167763 -0.24110612 291.72550207 -0.24170321 292.66176498 -0.24231839 C295.593896 0.21087711 296.9486051 1.09207943 299.07986641 3.13142776 C300.39574731 7.07907047 300.20286914 10.84232133 300.17752266 14.95564651 C300.17540024 16.24774788 300.17540024 16.24774788 300.17323494 17.5659523 C300.16763781 20.31697946 300.15508587 23.06792521 300.14236641 25.81892776 C300.13735104 27.68416096 300.13278819 29.54939544 300.12869453 31.41463089 C300.11766932 35.98692788 300.10040668 40.55916402 300.07986641 45.13142776 C301.23744453 45.09662308 302.39502266 45.06181839 303.58767891 45.02595901 C305.12672681 44.9978057 306.66579052 44.9705072 308.20486641 44.94392776 C308.96541328 44.91879105 309.72596016 44.89365433 310.50955391 44.86775589 C316.22833806 44.79380609 320.32644718 45.72005312 324.77395821 49.61507034 C328.70705947 54.3862421 331.82897398 59.45615445 334.89236641 64.81892776 C336.03129421 66.77955007 337.17201 68.73913451 338.31424141 70.69783401 C338.91945625 71.73697952 339.5246711 72.77612503 340.14822578 73.8467598 C343.58336515 79.68805972 347.11555964 85.47018228 350.64236641 91.25642776 C352.10247573 93.65457701 353.56198258 96.05309244 355.02127266 98.45174026 C355.37325218 99.03017181 355.7252317 99.60860336 356.08787727 100.20456314 C359.10613522 105.16772864 362.09803669 110.14631902 365.07986641 115.13142776 C371.06192115 125.12989986 377.11148536 135.08726999 383.16888618 145.04021072 C384.17831905 146.70214512 385.18260986 148.36719923 386.1868 150.03230667 C387.39762936 152.01454396 388.63285418 153.98221244 389.89871407 155.92976761 C395.28241646 164.33752066 395.4708397 171.64794668 393.37674141 181.40877151 C388.29281725 198.14694556 376.69410824 210.88233425 361.67361641 219.51424026 C356.62226151 222.13142776 356.62226151 222.13142776 354.07986641 222.13142776 C354.07986641 235.66142776 354.07986641 249.19142776 354.07986641 263.13142776 C358.36986641 263.13142776 362.65986641 263.13142776 367.07986641 263.13142776 C372.07986641 267.13142776 372.07986641 267.13142776 373.07986641 270.13142776 C373.17775398 272.43033676 373.21325825 274.73203643 373.21789742 277.03302383 C373.22071869 277.7392194 373.22353997 278.44541497 373.22644675 279.17301041 C373.23479608 281.54514691 373.23613127 283.91723675 373.23758125 286.28938675 C373.24224914 287.98775235 373.24739267 289.68611669 373.25297737 291.38447952 C373.26426084 295.04473567 373.27269374 298.70498366 373.2790966 302.36525154 C373.2897683 308.15087171 373.31001006 313.93643323 373.33221626 319.7220192 C373.39417129 336.1749491 373.44818599 352.62787543 373.4812336 369.08089066 C373.4995611 378.16544512 373.52847157 387.2499013 373.56923831 396.33438355 C373.59033618 401.14338368 373.60576954 405.95225981 373.60804558 410.76130867 C373.61018824 415.28312727 373.62601829 419.8046875 373.6524353 424.32642746 C373.65964382 425.98728194 373.66172177 427.64816768 373.65833282 429.30903435 C373.65444904 431.57394661 373.66885607 433.8380292 373.68786812 436.10284805 C373.69283334 438.00511485 373.69283334 438.00511485 373.69789886 439.94581127 C374.10744562 443.36143888 374.81543401 444.62802303 377.07986641 447.13142776 C379.01900677 452.51668154 378.3060017 458.74339118 378.32986641 464.38142776 C378.36080391 466.18547073 378.36080391 466.18547073 378.39236641 468.02595901 C378.42182691 474.735587 378.34207129 480.18270121 375.07986641 486.13142776 C370.60439319 489.83376928 367.0533336 490.71072725 361.39299202 490.63479233 C360.63485187 490.64060609 359.87671172 490.64641985 359.09559762 490.65240979 C356.55235141 490.66702064 354.01006866 490.65311996 351.4668293 490.63936234 C349.62626114 490.64397083 347.78569666 490.6503234 345.94513988 490.65827131 C340.88507779 490.67499483 335.82531683 490.66670449 330.76525354 490.65432644 C325.30913962 490.64529066 319.85307813 490.65923836 314.39697456 490.67024612 C303.70755728 490.68805165 293.0182522 490.68418229 282.32883048 490.67259556 C273.64289728 490.66356952 264.95699558 490.66233365 256.27105904 490.66669083 C254.41816028 490.66761022 254.41816028 490.66761022 252.52782923 490.6685482 C250.01857081 490.66982707 247.5093124 490.67112392 245.000054 490.67243856 C222.13077545 490.68352487 199.26154771 490.67201936 176.39228 490.65106817 C155.51304422 490.63208558 134.63390602 490.63378408 113.7546711 490.65291214 C90.29945946 490.67432827 66.84429441 490.68275163 43.38907337 490.67046309 C40.88894018 490.66918886 38.38880699 490.66793138 35.88867378 490.66669083 C34.04340531 490.66576517 34.04340531 490.66576517 32.16085869 490.66482082 C23.48330474 490.66136416 14.80578537 490.66720307 6.12823677 490.67660904 C-4.44386344 490.68781647 -15.01584483 490.68481539 -25.58793139 490.66348606 C-30.98409298 490.65295879 -36.3800563 490.64888245 -41.77621651 490.66208267 C-46.7133585 490.67397755 -51.65011793 490.66749195 -56.58722508 490.64617246 C-58.37583128 490.64169408 -60.16446962 490.64400028 -61.95305526 490.65367562 C-64.38025249 490.66580112 -66.8061313 490.65340465 -69.2332592 490.63479233 C-69.9313201 490.64415699 -70.629381 490.65352166 -71.34859526 490.6631701 C-76.29547155 490.58710354 -79.13349361 489.26556383 -82.92013359 486.13142776 C-86.67559459 479.23057011 -86.37039496 472.28321764 -86.29513359 464.56892776 C-86.30673515 463.37590042 -86.31833672 462.18287308 -86.33028984 460.95369339 C-86.28540827 447.49670244 -86.28540827 447.49670244 -81.92013359 443.13142776 C-81.81741139 440.91521064 -81.78657371 438.6956618 -81.78210258 436.47706985 C-81.77928131 435.7732887 -81.77646003 435.06950755 -81.77355325 434.34439969 C-81.76517031 431.96838511 -81.76386585 429.5924169 -81.76241875 427.2163887 C-81.75775318 425.51994062 -81.75261005 423.82349379 -81.74702263 422.12704849 C-81.73572045 418.46457664 -81.72729648 414.80211302 -81.7209034 411.13962936 C-81.71024713 405.34969401 -81.69000827 399.5598176 -81.66778374 393.76991653 C-81.60578093 377.30239437 -81.55184544 360.8348751 -81.5187664 344.36726761 C-81.50043082 335.27942206 -81.47150668 326.19167461 -81.43076169 317.10390115 C-81.40967069 312.29204488 -81.3942315 307.48031237 -81.39195442 302.66840744 C-81.38980953 298.14086717 -81.37395641 293.61358439 -81.3475647 289.08612251 C-81.34036369 287.42407717 -81.33827461 285.76200065 -81.34166718 284.09994316 C-81.34555889 281.83089674 -81.33111786 279.56267391 -81.31213188 277.29372025 C-81.30882174 276.02386654 -81.30551159 274.75401283 -81.30210114 273.44567871 C-80.88724202 269.84603461 -80.1053077 267.99246398 -77.92013359 265.13142776 C-74.92013359 263.13142776 -74.92013359 263.13142776 -61.92013359 263.13142776 C-61.92013359 249.60142776 -61.92013359 236.07142776 -61.92013359 222.13142776 C-64.89013359 221.14142776 -64.89013359 221.14142776 -67.92013359 220.13142776 C-83.97861242 212.23169221 -95.10892507 198.9165923 -100.92013359 182.13142776 C-103.43476922 173.6790303 -103.38188453 165.01086966 -99.25686455 157.19896317 C-97.28558743 153.7969 -95.18459925 150.49197581 -93.04513359 147.19392776 C-92.15275306 145.76419103 -91.26344924 144.33252955 -90.37716484 142.89900589 C-88.32246271 139.59012607 -86.23482341 136.30429934 -84.13027763 133.02696609 C-82.42098695 130.34957737 -80.7404464 127.65455399 -79.06109428 124.9583168 C-77.94899575 123.17764142 -76.82642321 121.40394622 -75.70138359 119.63142776 C-71.47960003 112.87657407 -67.47490986 105.98720144 -63.42013359 99.13142776 C-57.41572709 88.98194898 -51.37963173 78.86850738 -45.04269218 68.92195511 C-43.77421564 66.8986826 -42.5434205 64.8548345 -41.31466484 62.80720901 C-40.87259697 62.07824417 -40.4305291 61.34927933 -39.97506523 60.59822464 C-39.13895746 59.21790378 -38.31057126 57.83285811 -37.49215508 56.44197464 C-34.32791787 51.25668252 -30.87059623 47.11491531 -24.92013359 45.13142776 C-22.34747541 45.06113656 -19.80371928 45.03771944 -17.23263359 45.06892776 C-16.17979179 45.07569534 -16.17979179 45.07569534 -15.10568047 45.08259964 C-13.37712821 45.0943585 -11.64861994 45.11229323 -9.92013359 45.13142776 C-9.93584404 43.97618607 -9.95155449 42.82094437 -9.96774101 41.63069534 C-10.02213728 37.33503089 -10.05651892 33.03939676 -10.08492851 28.74348831 C-10.09999305 26.88601431 -10.12044868 25.02857576 -10.14645195 23.17122269 C-10.18293818 20.49771237 -10.19988329 17.82467332 -10.21310234 15.15095901 C-10.2285862 14.32368805 -10.24407005 13.49641708 -10.26002312 12.6440773 C-10.26137731 7.97997899 -9.96254209 4.91629304 -6.92013359 1.13142776 C-4.4348124 -0.11123283 -2.78143915 0.00381666 0 0 Z M7.07986641 17.13142776 C7.07986641 26.37142776 7.07986641 35.61142776 7.07986641 45.13142776 C98.15986641 45.13142776 189.23986641 45.13142776 283.07986641 45.13142776 C283.07986641 35.89142776 283.07986641 26.65142776 283.07986641 17.13142776 C191.99986641 17.13142776 100.91986641 17.13142776 7.07986641 17.13142776 Z M-29.14278984 72.36580276 C-30.50979278 75.34895462 -31.73440839 78.33350501 -32.86901665 81.41225052 C-34.29061922 85.08985214 -36.17011439 88.11113305 -38.31075859 91.42049026 C-38.9486834 92.46930374 -39.5866082 93.51811722 -40.24386406 94.59871292 C-40.879533 95.64075882 -41.51520195 96.68280472 -42.17013359 97.75642776 C-42.88138052 98.92479553 -43.59247606 100.09325545 -44.30343437 101.26179886 C-45.76984473 103.67180177 -47.23687931 106.081423 -48.70431328 108.49080276 C-50.93866609 112.1605206 -53.16825251 115.83311929 -55.39669609 119.50642776 C-55.76347969 120.11096283 -56.13026329 120.71549789 -56.50816154 121.3383522 C-57.96178995 123.73430595 -59.41535704 126.13029683 -60.86871147 128.52641678 C-64.37717384 134.31008158 -67.89009908 140.09073173 -71.43185234 145.85408401 C-72.21423271 147.1280806 -72.21423271 147.1280806 -73.01241875 148.42781448 C-73.96450365 149.97625679 -74.91848452 151.52353559 -75.87472343 153.06941605 C-77.97324411 155.91216299 -77.97324411 155.91216299 -78.92013359 159.13142776 C-46.25013359 159.13142776 -13.58013359 159.13142776 20.07986641 159.13142776 C24.49361641 144.79705276 28.90736641 130.46267776 33.45486641 115.69392776 C34.84624825 111.18164505 36.23763008 106.66936234 37.671175 102.02034378 C38.92366931 97.94644334 38.92366931 97.94644334 40.17523384 93.87225723 C40.72969253 92.06892328 41.28552384 90.26601098 41.84247017 88.46344376 C42.6897027 85.72038935 43.53246039 82.97599483 44.3743 80.23128128 C44.62004957 79.43924836 44.86579914 78.64721544 45.11899567 77.83118153 C46.70269929 72.64588875 47.97761267 67.43962256 49.07986641 62.13142776 C40.1796693 61.61874445 31.28462499 61.22948283 22.37282467 60.99155998 C18.232475 60.87726521 14.10229352 60.72287077 9.96780586 60.4717598 C-13.10389223 58.2937975 -13.10389223 58.2937975 -29.14278984 72.36580276 Z M67.07986641 62.13142776 C60.29425229 83.31680035 60.29425229 83.31680035 53.70486641 104.56111526 C53.24550203 106.06520266 52.78611004 107.56928163 52.32669258 109.07335281 C51.38459417 112.15938525 50.44393416 115.24585173 49.50418282 118.33259964 C48.30007982 122.28662614 47.09039746 126.23892417 45.87954903 130.19088936 C44.93824809 133.26629528 44.00068132 136.34283002 43.06418037 139.41970062 C42.61898827 140.88017249 42.17243073 142.34022889 41.72445869 143.79985046 C41.10591021 145.816589 40.49261885 147.83485326 39.88064766 149.85359573 C39.53171455 150.99730637 39.18278145 152.141017 38.82327461 153.31938553 C37.9520737 156.13004622 37.9520737 156.13004622 38.07986641 159.13142776 C71.07986641 159.13142776 104.07986641 159.13142776 138.07986641 159.13142776 C138.07986641 127.12142776 138.07986641 95.11142776 138.07986641 62.13142776 C114.64986641 62.13142776 91.21986641 62.13142776 67.07986641 62.13142776 Z M154.07986641 62.13142776 C154.07986641 94.14142776 154.07986641 126.15142776 154.07986641 159.13142776 C187.07986641 159.13142776 220.07986641 159.13142776 254.07986641 159.13142776 C252.78048748 152.6345331 251.42943657 146.50506104 249.48196602 140.22517776 C249.22968742 139.39787659 248.97740883 138.57057541 248.71748543 137.7182045 C247.89373399 135.02115609 247.06311898 132.32627884 246.23221016 129.63142776 C245.65416509 127.74490457 245.07649887 125.85826525 244.49919319 123.97151566 C243.29426259 120.03708769 242.08616965 116.10365063 240.87552071 112.17097855 C239.32186266 107.12386522 237.77405377 102.07498251 236.22831059 97.02544022 C235.03828873 93.13890694 233.84630241 89.25297865 232.65359879 85.36726761 C232.08188977 83.50458593 231.51054235 81.64179324 230.93955994 79.7788887 C230.14433846 77.18619582 229.34673634 74.59424816 228.54837227 72.00252151 C228.31199043 71.23060974 228.0756086 70.45869797 227.83206367 69.66339493 C226.66332393 65.81729955 226.66332393 65.81729955 225.07986641 62.13142776 C201.64986641 62.13142776 178.21986641 62.13142776 154.07986641 62.13142776 Z M243.07986641 62.13142776 C245.39323227 72.01251043 248.30360931 81.6688119 251.29861641 91.35799026 C251.80309128 92.99831439 252.30727683 94.63872752 252.81118965 96.2792244 C254.12902274 100.56688723 255.45053093 104.85340815 256.77292061 109.13966751 C258.37559275 114.3368056 259.9739145 119.53528286 261.57288551 124.73356056 C262.81758724 128.77981449 264.06290096 132.82587636 265.31021309 136.87132645 C265.54082939 137.61969269 265.77144569 138.36805893 266.00905037 139.13910294 C266.43250529 140.5131381 266.85623089 141.8870899 267.28032112 143.26092911 C268.9077553 148.54331822 270.49142631 153.83662743 272.07986641 159.13142776 C304.74986641 159.13142776 337.41986641 159.13142776 371.07986641 159.13142776 C364.45166546 147.51278368 364.45166546 147.51278368 357.64236641 136.00642776 C357.14994453 135.18787308 356.65752266 134.36931839 356.15017891 133.52595901 C351.28116029 125.44267383 346.37789475 117.38008842 341.47662544 109.31633377 C335.95026588 100.22413567 330.45058418 91.11645496 324.98611641 81.98689651 C324.34053024 80.95722763 324.34053024 80.95722763 323.68190193 79.90675735 C322.43872177 77.75310057 321.41003124 75.68587995 320.39653206 73.42750931 C316.6493441 65.46385092 316.6493441 65.46385092 309.56945992 60.80960464 C305.26488341 60.39298052 301.1960748 60.43738588 296.88846016 60.66658401 C295.33201063 60.69460748 293.77542757 60.71593756 292.21879768 60.73089981 C288.14624515 60.78783736 284.08188571 60.9347858 280.01254463 61.1014595 C275.85056648 61.25569734 271.68724569 61.32357503 267.52322578 61.39900589 C259.37170284 61.55926797 251.22680688 61.81477171 243.07986641 62.13142776 Z M-83.92013359 176.13142776 C-81.6197646 187.63327271 -74.33930893 196.05966436 -64.77950859 202.49080276 C-50.16995386 210.87333417 -32.562402 212.81931191 -16.29513359 208.50642776 C-1.6630707 203.62334215 7.58816116 195.01649722 14.95486641 181.75642776 C16.27682606 179.14784107 16.27682606 179.14784107 16.07986641 176.13142776 C-16.92013359 176.13142776 -49.92013359 176.13142776 -83.92013359 176.13142776 Z M36.07986641 176.13142776 C38.3802354 187.63327271 45.66069107 196.05966436 55.22049141 202.49080276 C69.83004614 210.87333417 87.437598 212.81931191 103.70486641 208.50642776 C118.3369293 203.62334215 127.58816116 195.01649722 134.95486641 181.75642776 C136.27682606 179.14784107 136.27682606 179.14784107 136.07986641 176.13142776 C103.07986641 176.13142776 70.07986641 176.13142776 36.07986641 176.13142776 Z M156.07986641 176.13142776 C158.3802354 187.63327271 165.66069107 196.05966436 175.22049141 202.49080276 C189.83004614 210.87333417 207.437598 212.81931191 223.70486641 208.50642776 C238.3369293 203.62334215 247.58816116 195.01649722 254.95486641 181.75642776 C256.27682606 179.14784107 256.27682606 179.14784107 256.07986641 176.13142776 C223.07986641 176.13142776 190.07986641 176.13142776 156.07986641 176.13142776 Z M276.07986641 176.13142776 C278.3802354 187.63327271 285.66069107 196.05966436 295.22049141 202.49080276 C309.83004614 210.87333417 327.437598 212.81931191 343.70486641 208.50642776 C349.71116108 206.5019769 354.93709299 203.81276557 360.07986641 200.13142776 C361.03119453 199.45466995 361.03119453 199.45466995 362.00174141 198.76424026 C368.34015267 193.80008632 373.50726758 186.77392869 376.07986641 179.13142776 C376.07986641 178.14142776 376.07986641 177.15142776 376.07986641 176.13142776 C343.07986641 176.13142776 310.07986641 176.13142776 276.07986641 176.13142776 Z M25.07986641 197.13142776 C23.57904694 198.88419778 23.57904694 198.88419778 22.01736641 201.13142776 C11.77228563 214.51917136 -2.87867024 222.99303594 -19.50216484 225.82039261 C-27.91318402 226.90234318 -36.44988649 227.00228099 -44.92013359 227.13142776 C-44.92013359 229.11142776 -44.92013359 231.09142776 -44.92013359 233.13142776 C81.13986641 233.13142776 207.19986641 233.13142776 337.07986641 233.13142776 C337.07986641 231.15142776 337.07986641 229.17142776 337.07986641 227.13142776 C336.46168037 227.12208206 335.84349434 227.11273636 335.20657539 227.10310745 C311.47914299 226.65388275 291.14946731 222.6223046 273.53299141 205.84236526 C271.07986641 203.13142776 271.07986641 203.13142776 268.87674141 199.79549026 C268.28377266 198.91634964 267.69080391 198.03720901 267.07986641 197.13142776 C266.41986641 197.13142776 265.75986641 197.13142776 265.07986641 197.13142776 C263.57904694 198.88419778 263.57904694 198.88419778 262.01736641 201.13142776 C251.86931608 214.39237697 237.04097639 223.22772299 220.47928047 225.85017776 C199.69221752 228.28675657 178.45265618 225.57889605 161.27469063 212.78718948 C156.54601894 208.93404944 152.25484547 204.91056272 148.87674141 199.79549026 C148.28377266 198.91634964 147.69080391 198.03720901 147.07986641 197.13142776 C146.41986641 197.13142776 145.75986641 197.13142776 145.07986641 197.13142776 C143.57904694 198.88419778 143.57904694 198.88419778 142.01736641 201.13142776 C131.86931608 214.39237697 117.04097639 223.22772299 100.47928047 225.85017776 C79.69221752 228.28675657 58.45265618 225.57889605 41.27469063 212.78718948 C36.54601894 208.93404944 32.25484547 204.91056272 28.87674141 199.79549026 C27.98728828 198.47677933 27.98728828 198.47677933 27.07986641 197.13142776 C26.41986641 197.13142776 25.75986641 197.13142776 25.07986641 197.13142776 Z M-44.92013359 249.13142776 C-44.92013359 253.75142776 -44.92013359 258.37142776 -44.92013359 263.13142776 C-41.57888359 263.25517776 -41.57888359 263.25517776 -38.17013359 263.38142776 C-31.73313681 263.61983505 -31.73313681 263.61983505 -28.73843193 265.50429153 C-25.85711871 269.66730603 -26.34991751 273.82696204 -26.37423515 278.77498245 C-26.36389748 279.85821289 -26.3535598 280.94144333 -26.34290886 282.05749893 C-26.31340041 285.63958384 -26.31197993 289.22110568 -26.31075859 292.80330276 C-26.29578245 295.28624428 -26.27905651 297.76917582 -26.26064873 300.25209427 C-26.2213719 306.12039684 -26.19974976 311.98855693 -26.18667483 317.85697198 C-26.16924497 325.19466614 -26.12441462 332.53213073 -26.08028984 339.86970901 C-26.00490579 352.95692839 -25.95673637 366.04404239 -25.92013359 379.13142776 C-18.99013359 379.13142776 -12.06013359 379.13142776 -4.92013359 379.13142776 C-4.23950859 376.90392776 -3.55888359 374.67642776 -2.85763359 372.38142776 C3.40748612 353.17229487 15.75629255 340.04116896 33.49392891 330.88533401 C34.01728828 330.63654495 34.54064766 330.38775589 35.07986641 330.13142776 C33.44419046 326.72439767 31.49698342 323.65665566 29.39627266 320.52205276 C25.94015047 314.24565282 24.51869779 308.53428526 24.57986641 301.38142776 C24.58558662 300.59719437 24.59130684 299.81296097 24.59720039 299.00496292 C24.89860149 289.10642329 28.31183761 281.03447172 35.20096016 273.87752151 C44.67966096 265.06883283 54.05887548 261.90272184 67.07986641 262.13142776 C78.19798819 263.55222993 87.54392801 268.30959577 94.61502266 277.06111526 C101.08034009 286.19876389 103.14192881 296.05371359 102.07986641 307.13142776 C100.35468277 315.97428524 97.17287418 322.50784909 91.07986641 329.13142776 C92.75527114 330.24836425 94.45163203 331.33948009 96.20877266 332.32283401 C102.98885135 336.14274994 108.53022281 340.69446728 114.07986641 346.13142776 C114.70763985 346.72310745 115.33541328 347.31478714 115.98221016 347.92439651 C124.1876166 356.35307932 128.44270035 368.21992958 132.07986641 379.13142776 C146.26986641 379.13142776 160.45986641 379.13142776 175.07986641 379.13142776 C177.05986641 373.68642776 177.05986641 373.68642776 179.07986641 368.13142776 C183.38608053 364.44038709 187.15864298 363.06422117 192.74783516 362.81502151 C193.64051094 362.77312698 194.53318672 362.73123245 195.45291328 362.68806839 C196.38168282 362.64875198 197.31045235 362.60943558 198.26736641 362.56892776 C199.2077375 362.52574417 200.1481086 362.48256058 201.11697578 362.43806839 C203.43779495 362.33204112 205.75871966 362.22997748 208.07986641 362.13142776 C208.07986641 361.14142776 208.07986641 360.15142776 208.07986641 359.13142776 C206.89956856 359.11684525 205.71927071 359.10226273 204.50320625 359.08723831 C200.10837266 359.0291008 195.71404314 358.95186895 191.3196125 358.86897659 C189.42060742 358.83579984 187.52150545 358.80774545 185.62234688 358.78499222 C182.88641406 358.75131258 180.1513633 358.69899056 177.41580391 358.64314651 C176.57182045 358.63675659 175.72783699 358.63036667 174.85827827 358.62378311 C169.87549042 358.50055355 166.40494088 357.86546615 162.07986641 355.13142776 C157.13574254 349.91263034 155.83220865 345.34777182 155.80520821 338.24910355 C155.80009727 337.57686752 155.79498634 336.9046315 155.78972054 336.21202469 C155.77587437 334.00017144 155.77677768 331.78863158 155.77908516 329.57674026 C155.77519511 328.03123739 155.7708598 326.48573558 155.76609993 324.94023514 C155.75864814 321.70396329 155.75892113 318.46780055 155.76419258 315.23152542 C155.7699818 311.09680485 155.75306472 306.96253302 155.72984791 302.82788658 C155.7150707 299.63643687 155.71424434 296.4450942 155.71735764 293.25361633 C155.71684629 291.72987734 155.71164378 290.20613207 155.70154572 288.68242645 C155.68912243 286.54550697 155.69600739 284.40944814 155.70755196 282.27254105 C155.70692253 281.05962387 155.70629311 279.8467067 155.70564461 278.59703445 C156.20415346 273.98042577 157.48073585 269.94621715 160.61502266 266.38924026 C164.69436974 263.36363757 166.75933681 262.00825428 171.79770088 261.99098587 C172.79306358 261.98527573 173.78842628 261.97956558 174.81395149 261.9736824 C175.91007256 261.97256454 177.00619362 261.97144669 178.13553047 261.97029495 C179.28685966 261.96533005 180.43818886 261.96036514 181.62440681 261.95524979 C185.44810768 261.94059831 189.27176704 261.93382079 193.09549141 261.92830276 C195.07664202 261.92400569 197.05779263 261.91970811 199.03894305 261.91532826 C204.56176675 261.90351095 210.08458038 261.89597792 215.60741544 261.89253306 C222.74620279 261.88805575 229.88479834 261.87052475 237.02352738 261.84153247 C242.54294038 261.8198963 248.0622995 261.8098277 253.58175445 261.80849195 C256.8773557 261.80744499 260.17273591 261.80011154 263.46830177 261.78367233 C267.14789048 261.76662958 270.82701213 261.76848824 274.50662422 261.77498245 C276.13866043 261.76116028 276.13866043 261.76116028 277.80366707 261.74705887 C284.59982981 261.784658 289.32165182 262.37321318 294.32986641 267.38142776 C297.61343826 272.54132638 298.32995069 277.81602912 298.35452461 283.84187698 C298.36405663 285.13366867 298.37358864 286.42546036 298.3834095 287.75639725 C298.38314801 289.14963687 298.38221066 290.5428765 298.38064766 291.93611526 C298.38454135 293.38428748 298.38887739 294.83245856 298.39363289 296.2806282 C298.40107 299.30824366 298.40082234 302.33574246 298.39554024 305.36336136 C298.38975187 309.22207312 298.40667314 313.0803039 298.42988491 316.93893623 C298.44469665 319.92801529 298.44548386 322.91698052 298.44237518 325.90608978 C298.44288476 327.32769726 298.44805346 328.74931173 298.4581871 330.17088318 C298.5707301 348.16605329 298.5707301 348.16605329 293.66331673 353.74052811 C290.0070521 356.95218379 286.84824915 358.23117957 282.06741524 358.33675003 C280.86651001 358.36666786 280.86651001 358.36666786 279.64134407 358.39719009 C278.78187675 358.41390259 277.92240944 358.43061508 277.03689766 358.44783401 C276.1533007 358.46861511 275.26970375 358.48939621 274.35933113 358.51080704 C271.53708856 358.57618531 268.71475306 358.63513304 265.89236641 358.69392776 C263.97894535 358.73712413 262.06553367 358.78073878 260.15213203 358.82478714 C255.46147204 358.93185472 250.77071858 359.03315528 246.07986641 359.13142776 C246.07986641 360.12142776 246.07986641 361.11142776 246.07986641 362.13142776 C246.64383125 362.14077347 247.2077961 362.15011917 247.78885078 362.15974808 C250.38668633 362.21400263 252.9828256 362.29753459 255.57986641 362.38142776 C256.46674141 362.39560745 257.35361641 362.40978714 258.26736641 362.42439651 C264.29839299 362.64612543 269.04222821 363.68396303 274.07986641 367.13142776 C277.47854843 371.18791921 277.27055488 373.46624706 278.07986641 379.13142776 C291.27986641 379.13142776 304.47986641 379.13142776 318.07986641 379.13142776 C318.09388496 374.11906937 318.09388496 374.11906937 318.10818672 369.0054512 C318.14192156 357.97714411 318.19745095 346.94902484 318.26376915 335.92086792 C318.30331428 329.23306545 318.33596174 322.54540686 318.3508625 315.85750198 C318.36598257 309.40587179 318.40034574 302.95460724 318.44817543 296.5031395 C318.46303722 294.0391571 318.47091015 291.57512251 318.47175026 289.11109543 C318.47410716 285.66532567 318.50108536 282.22057698 318.53396797 278.77498245 C318.52893761 277.75143158 318.52390724 276.72788071 318.51872444 275.67331314 C318.62058673 268.7950099 318.62058673 268.7950099 320.89816475 265.50429153 C325.59477351 262.5488902 331.72120532 263.32989669 337.07986641 263.13142776 C337.07986641 258.51142776 337.07986641 253.89142776 337.07986641 249.13142776 C211.01986641 249.13142776 84.95986641 249.13142776 -44.92013359 249.13142776 Z M45.07986641 287.13142776 C40.49566179 293.19397056 40.11465011 299.74802063 41.07986641 307.13142776 C43.05488718 314.1199628 47.76502187 318.67349137 53.95877266 322.20174026 C60.08651942 324.94994184 65.9722205 324.41324635 72.28299141 322.44392776 C78.88652015 319.62104525 82.52291278 314.52841751 85.45486641 308.13142776 C86.92552894 301.07224761 86.2866346 295.53120118 83.07986641 289.13142776 C78.8859303 282.76821435 73.44577269 279.73853459 66.07986641 278.13142776 C58.02404271 277.07145096 50.27306524 281.22517314 45.07986641 287.13142776 Z M172.07986641 278.13142776 C172.07986641 299.25142776 172.07986641 320.37142776 172.07986641 342.13142776 C184.94986641 342.13142776 197.81986641 342.13142776 211.07986641 342.13142776 C211.73986641 339.16142776 212.39986641 336.19142776 213.07986641 333.13142776 C215.07986641 330.13142776 215.07986641 330.13142776 218.07986641 329.13142776 C220.88349274 329.00866205 223.65136796 328.94629558 226.45486641 328.94392776 C227.21025703 328.93168167 227.96564766 328.91943558 228.74392891 328.90681839 C229.48127266 328.9048848 230.21861641 328.9029512 230.97830391 328.90095901 C231.97869698 328.89479568 231.97869698 328.89479568 232.9993 328.88850784 C235.7506776 329.20974942 237.65798008 329.75741995 240.07986641 331.13142776 C241.22439766 333.73299026 241.22439766 333.73299026 241.89236641 336.75642776 C242.24234688 338.2607637 242.24234688 338.2607637 242.59939766 339.79549026 C242.75795235 340.56634964 242.91650703 341.33720901 243.07986641 342.13142776 C248.47333629 342.15607626 253.86677366 342.17426307 259.26028633 342.18635941 C261.09655516 342.19140008 262.93281995 342.19823253 264.76907539 342.20686722 C267.40263042 342.21894449 270.03613257 342.22465858 272.66971016 342.22908401 C273.90877365 342.23682594 273.90877365 342.23682594 275.17286873 342.24472427 C277.14223008 342.24491981 279.11148254 342.19346928 281.07986641 342.13142776 C282.85903108 340.35226309 282.20751476 337.74829477 282.20926094 335.34236526 C282.21398918 333.48539017 282.21398918 333.48539017 282.21881294 331.59090042 C282.21702316 330.22940918 282.21497221 328.86791825 282.21267891 327.50642776 C282.213352 326.12019712 282.21432207 324.7339666 282.21557808 323.34773636 C282.21705481 320.43903355 282.21490131 317.53036139 282.2102375 314.62166214 C282.20454021 310.88546178 282.20781935 307.14933325 282.21380997 303.41313553 C282.21741626 300.54963511 282.21627668 297.68615183 282.21368217 294.82265091 C282.21301309 293.44468045 282.21384067 292.06670845 282.21616173 290.68873978 C282.21868933 288.76599022 282.21415665 286.84323525 282.20926094 284.92049026 C282.20846535 283.82430374 282.20766975 282.72811722 282.20685005 281.59871292 C282.35890876 279.18719425 282.35890876 279.18719425 281.07986641 278.13142776 C279.6630773 278.03592079 278.241554 278.00954293 276.82155037 278.01117325 C275.90303291 278.00979858 274.98451546 278.00842392 274.03816414 278.0070076 C273.02252892 278.01060287 272.00689369 278.01419815 270.96048164 278.01790237 C269.36555382 278.01768333 269.36555382 278.01768333 267.73840523 278.01745987 C264.20506983 278.01815952 260.67178641 278.02595434 257.13846016 278.03377151 C254.69608273 278.03563551 252.25370492 278.0370595 249.81132698 278.03805923 C243.36852176 278.04188587 236.92573893 278.0517174 230.48294258 278.06276321 C222.7603953 278.07476804 215.03784056 278.07937888 207.31528664 278.08521652 C195.57013097 278.09492908 183.82502446 278.11408463 172.07986641 278.13142776 Z M-63.92013359 280.13142776 C-63.92013359 332.60142776 -63.92013359 385.07142776 -63.92013359 439.13142776 C-56.99013359 439.13142776 -50.06013359 439.13142776 -42.92013359 439.13142776 C-42.92013359 386.66142776 -42.92013359 334.19142776 -42.92013359 280.13142776 C-49.85013359 280.13142776 -56.78013359 280.13142776 -63.92013359 280.13142776 Z M335.07986641 280.13142776 C335.07986641 332.60142776 335.07986641 385.07142776 335.07986641 439.13142776 C342.00986641 439.13142776 348.93986641 439.13142776 356.07986641 439.13142776 C356.07986641 386.66142776 356.07986641 334.19142776 356.07986641 280.13142776 C349.14986641 280.13142776 342.21986641 280.13142776 335.07986641 280.13142776 Z M29.07986641 353.13142776 C28.38506172 353.70377151 27.69025703 354.27611526 26.97439766 354.86580276 C20.10554409 361.08364314 14.33123339 370.12595985 12.07986641 379.13142776 C45.73986641 379.13142776 79.39986641 379.13142776 114.07986641 379.13142776 C109.02919654 363.97941817 101.32558665 353.47853585 86.95486641 346.19392776 C67.80336468 336.83932588 45.44745219 339.29311367 29.07986641 353.13142776 Z M226.07986641 352.13142776 C226.01517159 352.73615921 225.95047676 353.34089066 225.88382149 353.9639473 C225.57521764 356.73105101 225.23411118 359.49322939 224.89236641 362.25642776 C224.791175 363.20775589 224.6899836 364.15908401 224.58572578 365.13924026 C224.4664875 366.06736526 224.34724922 366.99549026 224.22439766 367.95174026 C224.07514839 369.22428665 224.07514839 369.22428665 223.92288399 370.52254105 C223.07986641 373.13142776 223.07986641 373.13142776 218.07986641 379.13142776 C223.68986641 379.13142776 229.29986641 379.13142776 235.07986641 379.13142776 C233.75986641 377.48142776 232.43986641 375.83142776 231.07986641 374.13142776 C230.3821125 371.75960159 230.3821125 371.75960159 230.10330391 369.33845901 C229.98986641 368.46125198 229.87642891 367.58404495 229.75955391 366.68025589 C229.65900703 365.77726761 229.55846016 364.87427933 229.45486641 363.94392776 C229.24094346 362.13704287 229.01992825 360.33097926 228.79080391 358.52595901 C228.70105293 357.73036575 228.61130196 356.93477249 228.51883125 356.11507034 C228.21744243 353.91058843 228.21744243 353.91058843 226.07986641 352.13142776 Z M-25.92013359 396.13142776 C-25.92013359 410.32142776 -25.92013359 424.51142776 -25.92013359 439.13142776 C87.59986641 439.13142776 201.11986641 439.13142776 318.07986641 439.13142776 C318.07986641 424.94142776 318.07986641 410.75142776 318.07986641 396.13142776 C204.55986641 396.13142776 91.03986641 396.13142776 -25.92013359 396.13142776 Z M-68.92013359 456.13142776 C-68.92013359 461.74142776 -68.92013359 467.35142776 -68.92013359 473.13142776 C72.97986641 473.13142776 214.87986641 473.13142776 361.07986641 473.13142776 C361.07986641 467.52142776 361.07986641 461.91142776 361.07986641 456.13142776 C219.17986641 456.13142776 77.27986641 456.13142776 -68.92013359 456.13142776 Z " fill="#000000" transform="translate(109.92013359069824,10.868572235107422)"/>
</svg>
