<svg width="24" height="24" viewBox="0 0 24 24" fill="none" xmlns="http://www.w3.org/2000/svg">
<path d="M15 9.81996L19.3709 7.635C19.5172 7.56188 19.6798 7.52736 19.8432 7.53472C20.0066 7.54208 20.1654 7.59108 20.3046 7.67705C20.4437 7.76303 20.5586 7.88314 20.6383 8.02598C20.718 8.16882 20.7599 8.32966 20.76 8.49324V14.9867C20.7599 15.1503 20.718 15.3111 20.6383 15.4539C20.5586 15.5968 20.4437 15.7169 20.3046 15.8029C20.1654 15.8888 20.0066 15.9378 19.8432 15.9452C19.6798 15.9526 19.5172 15.918 19.3709 15.8449L15 13.66V9.81996Z" stroke="#404040" stroke-width="1.44" stroke-linecap="round" stroke-linejoin="round"/>
<path d="M13.08 5.97998H5.39998C4.33959 5.97998 3.47998 6.83959 3.47998 7.89998V15.58C3.47998 16.6404 4.33959 17.5 5.39998 17.5H13.08C14.1404 17.5 15 16.6404 15 15.58V7.89998C15 6.83959 14.1404 5.97998 13.08 5.97998Z" stroke="#404040" stroke-width="1.44" stroke-linecap="round" stroke-linejoin="round"/>
</svg>
